<svg width="473" height="198" viewBox="0 0 473 198" fill="none" xmlns="http://www.w3.org/2000/svg">
<path d="M144.06 183.74C146.72 172.21 148.67 159.32 149.73 145.52C150.32 137.77 150.63 129.73 150.63 121.5C150.63 113.27 150.32 105.23 149.73 97.48C148.67 83.68 146.72 70.79 144.06 59.26C136.53 26.65 123.25 5 108.13 5C92.9999 5 79.7299 26.65 72.1899 59.26C69.5299 70.79 67.5899 83.69 66.5299 97.49C65.9399 105.24 65.6299 113.27 65.6299 121.5C65.6299 129.73 65.9399 137.76 66.5299 145.51C67.5899 159.31 69.5299 172.21 72.1899 183.74" stroke="white" stroke-width="10" stroke-miterlimit="10"/>
<path d="M209.02 179.75C201.46 192.85 176.07 193.52 144.06 183.74C132.75 180.28 120.61 175.52 108.13 169.53C101.12 166.18 94.01 162.43 86.88 158.31C79.75 154.19 72.94 149.9 66.53 145.51C55.11 137.7 44.92 129.58 36.27 121.5C44.92 113.42 55.11 105.3 66.53 97.49C67.59 83.69 69.53 70.79 72.19 59.26C83.5 62.71 95.65 67.48 108.13 73.47C115.14 76.82 122.25 80.57 129.38 84.69C136.51 88.81 143.32 93.09 149.73 97.48C161.15 105.3 171.35 113.43 180 121.5C204.47 144.33 216.58 166.65 209.02 179.75Z" stroke="white" stroke-width="10" stroke-miterlimit="10"/>
<path d="M180 121.5C171.35 129.57 161.15 137.7 149.73 145.52C143.32 149.91 136.51 154.19 129.38 158.31C122.25 162.43 115.14 166.18 108.13 169.53C95.65 175.52 83.5 180.29 72.19 183.74C40.18 193.52 14.79 192.85 7.23005 179.75C-0.329954 166.65 11.79 144.32 36.27 121.5C44.92 113.42 55.11 105.3 66.53 97.49C72.94 93.1 79.75 88.81 86.88 84.69C94.01 80.57 101.12 76.82 108.13 73.47C120.61 67.48 132.75 62.72 144.06 59.26C146.72 70.79 148.67 83.68 149.73 97.48C161.15 105.3 171.35 113.43 180 121.5Z" stroke="white" stroke-width="10" stroke-miterlimit="10"/>
<path d="M107.46 138C117.677 138 125.96 129.717 125.96 119.5C125.96 109.283 117.677 101 107.46 101C97.2427 101 88.96 109.283 88.96 119.5C88.96 129.717 97.2427 138 107.46 138Z" fill="white"/>
<path d="M205 100.12H288.88V115.12H254.44V184.12H239.44V115.12H205V100.12ZM332.008 100C355.168 100 374.008 118.84 374.008 142C374.008 165.16 355.168 184 332.008 184C308.848 184 290.008 165.16 290.008 142C290.008 118.84 308.848 100 332.008 100ZM332.008 169C346.888 169 359.008 156.88 359.008 142C359.008 127.12 346.888 115 332.008 115C317.128 115 305.008 127.12 305.008 142C305.008 156.88 317.128 169 332.008 169ZM452.008 111.52L467.008 100V184H452.008V130.48L437.248 141.76L425.008 151.24L412.768 141.76L398.008 130.48V184H383.008V100L398.008 111.52L425.008 132.28L452.008 111.52Z" fill="white"/>
</svg>
