<svg width="419" height="118" viewBox="0 0 419 118" fill="none" xmlns="http://www.w3.org/2000/svg">
<rect width="419" height="118" rx="59" fill="#ABABAB"/>
<path d="M158.027 63.8813H149.261L149.214 59.0532H156.574C157.87 59.0532 158.933 58.8892 159.761 58.561C160.589 58.2173 161.206 57.7251 161.613 57.0845C162.035 56.4282 162.245 55.6313 162.245 54.6938C162.245 53.6313 162.042 52.772 161.636 52.1157C161.245 51.4595 160.628 50.9829 159.785 50.686C158.956 50.3892 157.886 50.2407 156.574 50.2407H151.699V78.8579H144.667V44.7329H156.574C158.558 44.7329 160.331 44.9204 161.894 45.2954C163.472 45.6704 164.808 46.2407 165.902 47.0063C166.995 47.772 167.831 48.7407 168.41 49.9126C168.988 51.0688 169.277 52.4438 169.277 54.0376C169.277 55.4438 168.956 56.7407 168.316 57.9282C167.691 59.1157 166.699 60.0845 165.339 60.8345C163.995 61.5845 162.238 61.9985 160.066 62.0767L158.027 63.8813ZM157.722 78.8579H147.339L150.081 73.3735H157.722C158.956 73.3735 159.964 73.1782 160.745 72.7876C161.527 72.3813 162.105 71.8345 162.48 71.147C162.855 70.4595 163.042 69.6704 163.042 68.7798C163.042 67.7798 162.87 66.9126 162.527 66.1782C162.199 65.4438 161.667 64.8813 160.933 64.4907C160.199 64.0845 159.23 63.8813 158.027 63.8813H151.253L151.3 59.0532H159.738L161.355 60.9517C163.433 60.9204 165.105 61.2876 166.37 62.0532C167.652 62.8032 168.581 63.7798 169.16 64.9829C169.753 66.186 170.05 67.4751 170.05 68.8501C170.05 71.0376 169.574 72.8813 168.62 74.3813C167.667 75.8657 166.269 76.9829 164.425 77.7329C162.597 78.4829 160.363 78.8579 157.722 78.8579ZM189.199 50.5688L179.917 78.8579H172.441L185.12 44.7329H189.878L189.199 50.5688ZM196.91 78.8579L187.605 50.5688L186.855 44.7329H191.66L204.41 78.8579H196.91ZM196.488 66.1548V71.6626H178.464V66.1548H196.488ZM226.933 67.5376H233.941C233.8 69.8345 233.167 71.8735 232.042 73.6548C230.933 75.436 229.378 76.8267 227.378 77.8267C225.394 78.8267 223.003 79.3267 220.206 79.3267C218.019 79.3267 216.058 78.9517 214.324 78.2017C212.589 77.436 211.105 76.3423 209.87 74.9204C208.652 73.4985 207.722 71.7798 207.081 69.7642C206.441 67.7485 206.12 65.4907 206.12 62.9907V60.6235C206.12 58.1235 206.449 55.8657 207.105 53.8501C207.777 51.8188 208.73 50.0923 209.964 48.6704C211.214 47.2485 212.706 46.1548 214.441 45.3892C216.175 44.6235 218.113 44.2407 220.253 44.2407C223.097 44.2407 225.495 44.7563 227.449 45.7876C229.417 46.8188 230.941 48.2407 232.019 50.0532C233.113 51.8657 233.769 53.9282 233.988 56.2407H226.956C226.878 54.8657 226.605 53.7017 226.136 52.7485C225.667 51.7798 224.956 51.0532 224.003 50.5688C223.066 50.0688 221.816 49.8188 220.253 49.8188C219.081 49.8188 218.058 50.0376 217.183 50.4751C216.308 50.9126 215.574 51.5767 214.98 52.4673C214.386 53.3579 213.941 54.4829 213.644 55.8423C213.363 57.186 213.222 58.7642 213.222 60.5767V62.9907C213.222 64.7563 213.355 66.311 213.62 67.6548C213.886 68.9829 214.292 70.1079 214.839 71.0298C215.402 71.936 216.12 72.6235 216.995 73.0923C217.886 73.5454 218.956 73.772 220.206 73.772C221.675 73.772 222.886 73.5376 223.839 73.0688C224.792 72.6001 225.519 71.9048 226.019 70.9829C226.535 70.061 226.839 68.9126 226.933 67.5376ZM245.589 44.7329V78.8579H238.558V44.7329H245.589ZM266.027 44.7329L252.503 61.5845L244.699 69.9751L243.433 63.3188L248.706 56.1001L257.402 44.7329H266.027ZM258.035 78.8579L247.98 63.0845L253.183 58.7251L266.355 78.8579H258.035Z" fill="#0C0B0B"/>
</svg>
