<svg width="419" height="118" viewBox="0 0 419 118" fill="none" xmlns="http://www.w3.org/2000/svg">
<rect width="419" height="118" rx="59" fill="#090B23"/>
<path d="M179.472 73.3735V78.8579H161.308V73.3735H179.472ZM163.605 44.7329V78.8579H156.574V44.7329H163.605ZM177.105 58.6313V63.9751H161.308V58.6313H177.105ZM179.449 44.7329V50.2407H161.308V44.7329H179.449ZM189.363 44.7329L195.785 56.6392L202.206 44.7329H210.245L200.331 61.6548L210.503 78.8579H202.394L195.785 66.7173L189.175 78.8579H181.019L191.214 61.6548L181.277 44.7329H189.363ZM221.519 44.7329V78.8579H214.511V44.7329H221.519ZM242.66 44.7329V78.8579H235.652V44.7329H242.66ZM253.16 44.7329V50.2407H225.316V44.7329H253.16Z" fill="white"/>
</svg>
