<svg width="419" height="118" viewBox="0 0 419 118" fill="none" xmlns="http://www.w3.org/2000/svg">
<rect width="419" height="118" rx="59" fill="#2C315C"/>
<path d="M166.91 61.022V74.5454C166.378 75.186 165.558 75.8813 164.449 76.6313C163.339 77.3657 161.91 77.9985 160.16 78.5298C158.41 79.061 156.292 79.3267 153.808 79.3267C151.605 79.3267 149.597 78.9673 147.785 78.2485C145.972 77.5142 144.41 76.4438 143.097 75.0376C141.8 73.6313 140.8 71.9126 140.097 69.8813C139.394 67.8345 139.042 65.4985 139.042 62.8735V60.7407C139.042 58.1157 139.378 55.7798 140.05 53.7329C140.738 51.686 141.714 49.9595 142.98 48.5532C144.245 47.147 145.753 46.0767 147.503 45.3423C149.253 44.6079 151.199 44.2407 153.339 44.2407C156.308 44.2407 158.745 44.7251 160.652 45.6938C162.558 46.647 164.011 47.9751 165.011 49.6782C166.027 51.3657 166.652 53.3032 166.886 55.4907H160.066C159.894 54.3345 159.566 53.3267 159.081 52.4673C158.597 51.6079 157.902 50.936 156.995 50.4517C156.105 49.9673 154.949 49.7251 153.527 49.7251C152.355 49.7251 151.308 49.9673 150.386 50.4517C149.48 50.9204 148.714 51.6157 148.089 52.5376C147.464 53.4595 146.988 54.6001 146.66 55.9595C146.331 57.3188 146.167 58.897 146.167 60.6938V62.8735C146.167 64.6548 146.339 66.2329 146.683 67.6079C147.027 68.9673 147.535 70.1157 148.206 71.0532C148.894 71.9751 149.738 72.6704 150.738 73.1392C151.738 73.6079 152.902 73.8423 154.23 73.8423C155.339 73.8423 156.261 73.7485 156.995 73.561C157.745 73.3735 158.347 73.147 158.8 72.8813C159.269 72.6001 159.628 72.3345 159.878 72.0845V66.0376H153.456V61.022H166.91ZM186.456 50.5688L177.175 78.8579H169.699L182.378 44.7329H187.136L186.456 50.5688ZM194.167 78.8579L184.863 50.5688L184.113 44.7329H188.917L201.667 78.8579H194.167ZM193.745 66.1548V71.6626H175.722V66.1548H193.745ZM208.042 44.7329H213.995L222.761 69.7876L231.527 44.7329H237.48L225.152 78.8579H220.37L208.042 44.7329ZM204.831 44.7329H210.761L211.839 69.1548V78.8579H204.831V44.7329ZM234.761 44.7329H240.714V78.8579H233.683V69.1548L234.761 44.7329ZM269.777 73.3735V78.8579H251.613V73.3735H269.777ZM253.91 44.7329V78.8579H246.878V44.7329H253.91ZM267.41 58.6313V63.9751H251.613V58.6313H267.41ZM269.753 44.7329V50.2407H251.613V44.7329H269.753Z" fill="white"/>
</svg>
