<svg width="419" height="118" viewBox="0 0 419 118" fill="none" xmlns="http://www.w3.org/2000/svg">
<rect width="419" height="118" rx="59" fill="#090B23"/>
<path d="M166.328 44.875V79H159.32V44.875H166.328ZM200.688 44.875V79H193.656L179.945 56.125V79H172.914V44.875H179.945L193.68 67.7734V44.875H200.688ZM213.836 44.875V79H206.805V44.875H213.836ZM227.43 59.4531V64.9375H211.914V59.4531H227.43ZM229.07 44.875V50.3828H211.914V44.875H229.07ZM261.18 61.1406V62.7578C261.18 65.3516 260.828 67.6797 260.125 69.7422C259.422 71.8047 258.43 73.5625 257.148 75.0156C255.867 76.4531 254.336 77.5547 252.555 78.3203C250.789 79.0859 248.828 79.4688 246.672 79.4688C244.531 79.4688 242.57 79.0859 240.789 78.3203C239.023 77.5547 237.492 76.4531 236.195 75.0156C234.898 73.5625 233.891 71.8047 233.172 69.7422C232.469 67.6797 232.117 65.3516 232.117 62.7578V61.1406C232.117 58.5312 232.469 56.2031 233.172 54.1562C233.875 52.0938 234.867 50.3359 236.148 48.8828C237.445 47.4297 238.977 46.3203 240.742 45.5547C242.523 44.7891 244.484 44.4062 246.625 44.4062C248.781 44.4062 250.742 44.7891 252.508 45.5547C254.289 46.3203 255.82 47.4297 257.102 48.8828C258.398 50.3359 259.398 52.0938 260.102 54.1562C260.82 56.2031 261.18 58.5312 261.18 61.1406ZM254.078 62.7578V61.0938C254.078 59.2812 253.914 57.6875 253.586 56.3125C253.258 54.9375 252.773 53.7812 252.133 52.8438C251.492 51.9062 250.711 51.2031 249.789 50.7344C248.867 50.25 247.812 50.0078 246.625 50.0078C245.438 50.0078 244.383 50.25 243.461 50.7344C242.555 51.2031 241.781 51.9062 241.141 52.8438C240.516 53.7812 240.039 54.9375 239.711 56.3125C239.383 57.6875 239.219 59.2812 239.219 61.0938V62.7578C239.219 64.5547 239.383 66.1484 239.711 67.5391C240.039 68.9141 240.523 70.0781 241.164 71.0312C241.805 71.9688 242.586 72.6797 243.508 73.1641C244.43 73.6484 245.484 73.8906 246.672 73.8906C247.859 73.8906 248.914 73.6484 249.836 73.1641C250.758 72.6797 251.531 71.9688 252.156 71.0312C252.781 70.0781 253.258 68.9141 253.586 67.5391C253.914 66.1484 254.078 64.5547 254.078 62.7578Z" fill="white"/>
</svg>
